<svg xmlns="http://www.w3.org/2000/svg" viewBox="0 0 64 64" fill="none">
  <defs>
    <linearGradient id="g" x1="12" y1="8" x2="52" y2="56" gradientUnits="userSpaceOnUse">
      <stop stop-color="#18181B" />
      <stop offset="1" stop-color="#0F172A" />
    </linearGradient>
  </defs>
  <rect x="6" y="6" width="52" height="52" rx="16" fill="url(#g)"/>
  <path d="M32 18c4.2 0 7.6 3.4 7.6 7.6 0 4.2-3.4 7.6-7.6 7.6s-7.6-3.4-7.6-7.6C24.4 21.4 27.8 18 32 18Z" fill="#ffffff" opacity="0.92"/>
  <path d="M20 38.6c2.3-4.6 6.9-7.6 12-7.6s9.7 3 12 7.6c.5 1-.2 2.2-1.3 2.2H22.3c-1.1 0-1.8-1.2-1.3-2.2Z" fill="#ffffff" opacity="0.92"/>
  <path d="M32 25.6v7.2M28.4 29.2h7.2" stroke="#0B1220" stroke-width="2.4" stroke-linecap="round" opacity="0.7"/>
</svg>
